<svg width="226" height="155" viewBox="0 0 226 155" fill="none" xmlns="http://www.w3.org/2000/svg">
<path d="M38.6523 93.6143H80.3477L59.5 26.4404L38.6523 93.6143ZM118.416 147.416H97.1631L97.0723 147.124L86.5674 113.364H32.4326L21.9277 147.124L21.8369 147.416H0.583984V143.596L0.604492 143.532L47.1836 0.871094L47.2773 0.583984H71.7227L71.8164 0.871094L118.396 143.532L118.416 143.596V147.416Z" fill="white" stroke="black" stroke-width="0.832454"/>
<mask id="path-2-outside-1_248_48" maskUnits="userSpaceOnUse" x="122" y="51" width="104" height="104" fill="black">
<rect fill="white" x="122" y="51" width="104" height="104"/>
<path fill-rule="evenodd" clip-rule="evenodd" d="M188.634 53.0541H188.636L188.638 53.0543L191.056 53.2165L191.058 53.2167L191.061 53.2169L193.391 53.4873L193.393 53.4874L193.396 53.488L195.638 53.8663L195.64 53.8669L195.643 53.8675L197.797 54.354L197.8 54.3545L197.803 54.3554L199.869 54.9501L199.872 54.9509L199.875 54.952L201.853 55.6548L201.856 55.6557L201.859 55.657L203.749 56.468L203.752 56.4693L203.755 56.4707L205.557 57.3897L205.56 57.3914L205.563 57.3932L207.278 58.4203L207.281 58.422L207.283 58.424L208.91 59.5592L208.913 59.5613L208.916 59.5635L210.454 60.8069L210.456 60.8088L210.459 60.8108L211.891 62.1144L211.894 62.1168L211.896 62.1195L213.204 63.4942L213.207 63.4969L213.209 63.4999L214.395 64.9491L214.397 64.9522L215.455 66.4695L215.458 66.4729L215.46 66.4762L216.394 68.0647L216.396 68.0682L216.398 68.0717L217.207 69.7317L217.209 69.7352L217.21 69.7389L217.895 71.47L217.897 71.4735L217.898 71.4772L218.458 73.2796L218.46 73.2831L218.46 73.2868L218.896 75.1603L218.897 75.1638L218.898 75.1673L219.209 77.1123L219.21 77.1156L219.21 77.1191L219.397 79.1351L219.397 79.1384V79.1416L219.459 81.229V81.2331L219.453 81.8032V81.8052L219.435 82.3951L219.435 82.3969L219.404 83.0064L219.404 83.0082L219.361 83.6372V83.6389L219.306 84.2876L219.306 84.2893L219.239 84.9576L219.239 84.9591L219.16 85.6471V85.6486L219.068 86.3562L218.964 87.0849V87.0862L218.848 87.8331L218.847 87.8342L218.719 88.6009L218.719 88.602L218.579 89.3882L218.578 89.3919L212.6 117.168L212.599 117.17L212.572 117.288L212.572 117.288L212.546 117.417L212.524 117.548L212.503 117.69L212.504 117.69L212.485 117.841L212.47 117.997L212.456 118.161L212.456 118.161L212.445 118.331L212.437 118.51L212.437 118.51L212.431 118.696L212.431 118.697L212.427 118.892L212.426 119.09L212.461 119.759L212.565 120.366L212.738 120.912L212.978 121.399L213.287 121.827L213.665 122.199L214.112 122.514L214.63 122.773L215.22 122.975L215.882 123.12L216.616 123.208L217.424 123.237H223L218.578 144.06L218.569 144.104L218.53 144.127L206.882 150.869H197.5L197.497 150.869H197.494L195.544 150.816H195.542L195.539 150.816L193.674 150.657L193.671 150.657L193.668 150.657L193.665 150.656L191.886 150.391L191.882 150.391L191.879 150.39L190.188 150.019L190.185 150.018L190.181 150.017L188.578 149.54L188.574 149.539L188.571 149.537L187.06 148.956L187.056 148.954L187.052 148.953L187.049 148.951L185.622 148.262L185.618 148.26L185.615 148.258L184.277 147.462L184.273 147.46L184.269 147.458L183.019 146.556L183.016 146.554L183.012 146.551L181.851 145.543L181.844 145.537L180.771 144.424L180.768 144.421L180.765 144.417L180.381 143.942L174.174 147.494L174.173 147.495L172.104 148.647L172.101 148.649L172.098 148.65L172.095 148.652L172.093 148.653L169.949 149.669L169.946 149.67L167.721 150.552L167.717 150.553L167.714 150.554L167.711 150.555L167.711 150.555L167.708 150.556L165.411 151.3L165.408 151.301L165.405 151.301L163.026 151.911L163.026 151.911L163.023 151.912L163.02 151.913L163.017 151.913L160.556 152.388L160.554 152.388L160.551 152.389L158.015 152.727L158.014 152.727L158.012 152.728L158.009 152.728L158.006 152.728L155.389 152.932L155.386 152.932H155.384L152.693 153L152.691 153L152.69 153L152.686 153L152.681 153H152.679L150.544 152.956H150.542L150.54 152.955L148.478 152.822H148.476L148.471 152.822L148.469 152.822L148.467 152.821L148.462 152.821L146.477 152.6L146.474 152.599L146.472 152.599L144.553 152.288L144.548 152.287L144.545 152.287L144.544 152.286L142.702 151.888L142.7 151.887L142.697 151.887L140.925 151.399L140.922 151.398L140.919 151.397L140.917 151.396L140.914 151.395L139.221 150.82L139.218 150.819L139.215 150.818L137.591 150.152L137.585 150.149L136.033 149.395L136.03 149.393L136.028 149.392L134.55 148.548L134.544 148.545L133.14 147.613L133.137 147.611L133.134 147.608L131.804 146.588L131.801 146.586L131.798 146.583L130.558 145.49L130.555 145.487L130.553 145.485L129.421 144.334L129.418 144.332L129.416 144.329L128.391 143.122L128.389 143.119L128.387 143.116L127.47 141.852L127.468 141.849L127.466 141.846L126.657 140.525L126.655 140.522L126.653 140.518L125.952 139.141L125.95 139.137L125.949 139.134L125.356 137.7L125.354 137.696L125.353 137.692L124.868 136.202L124.867 136.198L124.866 136.194L124.488 134.647L124.487 134.644L124.487 134.64L124.217 133.036L124.216 133.032L124.216 133.029L124.054 131.368L124.054 131.365L124.054 131.361L124 129.644V129.638L124.058 127.658L124.058 127.651L124.231 125.736L124.231 125.732L124.232 125.729L124.519 123.877L124.52 123.874L124.521 123.87L124.924 122.083L124.925 122.079L124.926 122.076L125.444 120.352L125.445 120.349L125.447 120.345L126.08 118.686L126.081 118.682L126.083 118.679L126.832 117.083L126.833 117.08L126.835 117.076L127.699 115.545L127.701 115.542L127.703 115.539L128.682 114.072L128.684 114.068L128.686 114.065L129.781 112.662L129.783 112.66L129.785 112.657L130.995 111.318L130.997 111.315L131 111.313L132.324 110.038L132.327 110.036L132.329 110.033L133.763 108.83L133.765 108.828L133.768 108.826L135.305 107.702L135.307 107.7L135.31 107.698L136.95 106.652L136.952 106.651L136.955 106.649L150.559 99.11L150.562 99.1085L150.564 99.1072L152.403 98.2226L152.408 98.2204L154.35 97.4144L154.352 97.4135L154.354 97.4126L156.398 96.6852L156.401 96.6845L156.403 96.6837L158.55 96.035L158.554 96.0339L160.803 95.4638L160.805 95.4632L160.807 95.4628L163.159 94.9713L163.161 94.971L163.163 94.9706L165.617 94.5577L165.619 94.5575L165.621 94.5572L168.178 94.2231L168.179 94.2229L183.984 92.3273L184.012 92.1266L184.049 91.8502L184.081 91.591L184.108 91.3493L184.129 91.125L184.146 90.9181L184.159 90.7289L184.166 90.5573L184.168 90.4035L184.146 89.6555L184.081 88.9342L183.971 88.239L183.818 87.5705L183.622 86.9311L183.383 86.3186L183.099 85.7313L182.772 85.1732L182.402 84.6411L181.989 84.1365L181.53 83.6568L181.029 83.2044L180.486 82.7829L179.909 82.3995L179.292 82.0507L178.641 81.7395L177.954 81.4653L177.23 81.2273L176.465 81.0245L175.665 80.8591L174.826 80.7301L173.954 80.6384L173.043 80.5832L172.095 80.5648L171.027 80.588L170.248 80.6408L169.904 81.1956L169.504 81.9435L169.144 82.7262L168.825 83.5438L168.547 84.3954L168.311 85.2808L168.115 86.2008L167.932 87.4889L167.888 87.5134L156.087 94.045L156.064 94.0577H132.101L132.294 92.6986L132.295 92.6951L132.295 92.6918L132.85 90.078L132.85 90.0756L133.512 87.5679L133.513 87.5653L133.513 87.5629L134.283 85.1588L134.284 85.156L134.285 85.1534L135.162 82.8528L135.163 82.85L135.164 82.8475L136.149 80.6504L136.151 80.6476L136.152 80.6449L137.245 78.5515L137.246 78.5488L137.248 78.546L138.449 76.556L138.451 76.5532L138.453 76.5507L139.761 74.6644L139.763 74.6616L139.765 74.6591L141.182 72.8763L141.184 72.8736L141.186 72.8712L142.71 71.192L142.713 71.1894L142.715 71.1872L144.347 69.6116L144.349 69.6092L144.352 69.6071L146.092 68.1351L146.094 68.1332L147.937 66.742L147.939 66.7399L147.942 66.7381L149.876 65.4696L149.878 65.4677L151.908 64.3183L151.91 64.3173L163.725 57.8886L163.727 57.8875L163.729 57.8864L165.842 56.8629L165.848 56.8604L168.053 55.9575L168.055 55.9562L168.058 55.9553L170.356 55.1727L170.362 55.1709L172.753 54.5086L172.756 54.5079L172.758 54.5073L175.242 53.9656L175.245 53.9649L175.247 53.9645L177.824 53.5432L177.826 53.5428L177.829 53.5424L180.498 53.2414L180.503 53.241L183.264 53.0604H183.267L183.269 53.0602L186.124 53H186.128L188.634 53.0541ZM160.084 117.218L159.824 117.951L159.582 119.181L159.501 120.508L159.519 121.05L159.573 121.573L159.663 122.078L159.789 122.562L159.951 123.025L160.149 123.47L160.384 123.896L160.653 124.301L160.959 124.687L161.301 125.054L161.68 125.403L162.095 125.732L162.543 126.04L163.018 126.321L163.518 126.574L164.047 126.802L164.604 127.003L165.183 127.177L165.793 127.324L166.43 127.445L167.092 127.539L167.782 127.606L168.503 127.647L169.246 127.66L170.174 127.643L171.098 127.592L172.017 127.506L172.925 127.386L173.825 127.231L174.716 127.044L175.127 126.94L175.188 126.884L175.861 126.205L176.507 125.508L177.118 124.8L179.375 114.494L160.084 117.218Z"/>
</mask>
<path fill-rule="evenodd" clip-rule="evenodd" d="M188.634 53.0541H188.636L188.638 53.0543L191.056 53.2165L191.058 53.2167L191.061 53.2169L193.391 53.4873L193.393 53.4874L193.396 53.488L195.638 53.8663L195.64 53.8669L195.643 53.8675L197.797 54.354L197.8 54.3545L197.803 54.3554L199.869 54.9501L199.872 54.9509L199.875 54.952L201.853 55.6548L201.856 55.6557L201.859 55.657L203.749 56.468L203.752 56.4693L203.755 56.4707L205.557 57.3897L205.56 57.3914L205.563 57.3932L207.278 58.4203L207.281 58.422L207.283 58.424L208.91 59.5592L208.913 59.5613L208.916 59.5635L210.454 60.8069L210.456 60.8088L210.459 60.8108L211.891 62.1144L211.894 62.1168L211.896 62.1195L213.204 63.4942L213.207 63.4969L213.209 63.4999L214.395 64.9491L214.397 64.9522L215.455 66.4695L215.458 66.4729L215.46 66.4762L216.394 68.0647L216.396 68.0682L216.398 68.0717L217.207 69.7317L217.209 69.7352L217.21 69.7389L217.895 71.47L217.897 71.4735L217.898 71.4772L218.458 73.2796L218.46 73.2831L218.46 73.2868L218.896 75.1603L218.897 75.1638L218.898 75.1673L219.209 77.1123L219.21 77.1156L219.21 77.1191L219.397 79.1351L219.397 79.1384V79.1416L219.459 81.229V81.2331L219.453 81.8032V81.8052L219.435 82.3951L219.435 82.3969L219.404 83.0064L219.404 83.0082L219.361 83.6372V83.6389L219.306 84.2876L219.306 84.2893L219.239 84.9576L219.239 84.9591L219.16 85.6471V85.6486L219.068 86.3562L218.964 87.0849V87.0862L218.848 87.8331L218.847 87.8342L218.719 88.6009L218.719 88.602L218.579 89.3882L218.578 89.3919L212.6 117.168L212.599 117.17L212.572 117.288L212.572 117.288L212.546 117.417L212.524 117.548L212.503 117.69L212.504 117.69L212.485 117.841L212.47 117.997L212.456 118.161L212.456 118.161L212.445 118.331L212.437 118.51L212.437 118.51L212.431 118.696L212.431 118.697L212.427 118.892L212.426 119.09L212.461 119.759L212.565 120.366L212.738 120.912L212.978 121.399L213.287 121.827L213.665 122.199L214.112 122.514L214.63 122.773L215.22 122.975L215.882 123.12L216.616 123.208L217.424 123.237H223L218.578 144.06L218.569 144.104L218.53 144.127L206.882 150.869H197.5L197.497 150.869H197.494L195.544 150.816H195.542L195.539 150.816L193.674 150.657L193.671 150.657L193.668 150.657L193.665 150.656L191.886 150.391L191.882 150.391L191.879 150.39L190.188 150.019L190.185 150.018L190.181 150.017L188.578 149.54L188.574 149.539L188.571 149.537L187.06 148.956L187.056 148.954L187.052 148.953L187.049 148.951L185.622 148.262L185.618 148.26L185.615 148.258L184.277 147.462L184.273 147.46L184.269 147.458L183.019 146.556L183.016 146.554L183.012 146.551L181.851 145.543L181.844 145.537L180.771 144.424L180.768 144.421L180.765 144.417L180.381 143.942L174.174 147.494L174.173 147.495L172.104 148.647L172.101 148.649L172.098 148.65L172.095 148.652L172.093 148.653L169.949 149.669L169.946 149.67L167.721 150.552L167.717 150.553L167.714 150.554L167.711 150.555L167.711 150.555L167.708 150.556L165.411 151.3L165.408 151.301L165.405 151.301L163.026 151.911L163.026 151.911L163.023 151.912L163.02 151.913L163.017 151.913L160.556 152.388L160.554 152.388L160.551 152.389L158.015 152.727L158.014 152.727L158.012 152.728L158.009 152.728L158.006 152.728L155.389 152.932L155.386 152.932H155.384L152.693 153L152.691 153L152.69 153L152.686 153L152.681 153H152.679L150.544 152.956H150.542L150.54 152.955L148.478 152.822H148.476L148.471 152.822L148.469 152.822L148.467 152.821L148.462 152.821L146.477 152.6L146.474 152.599L146.472 152.599L144.553 152.288L144.548 152.287L144.545 152.287L144.544 152.286L142.702 151.888L142.7 151.887L142.697 151.887L140.925 151.399L140.922 151.398L140.919 151.397L140.917 151.396L140.914 151.395L139.221 150.82L139.218 150.819L139.215 150.818L137.591 150.152L137.585 150.149L136.033 149.395L136.03 149.393L136.028 149.392L134.55 148.548L134.544 148.545L133.14 147.613L133.137 147.611L133.134 147.608L131.804 146.588L131.801 146.586L131.798 146.583L130.558 145.49L130.555 145.487L130.553 145.485L129.421 144.334L129.418 144.332L129.416 144.329L128.391 143.122L128.389 143.119L128.387 143.116L127.47 141.852L127.468 141.849L127.466 141.846L126.657 140.525L126.655 140.522L126.653 140.518L125.952 139.141L125.95 139.137L125.949 139.134L125.356 137.7L125.354 137.696L125.353 137.692L124.868 136.202L124.867 136.198L124.866 136.194L124.488 134.647L124.487 134.644L124.487 134.64L124.217 133.036L124.216 133.032L124.216 133.029L124.054 131.368L124.054 131.365L124.054 131.361L124 129.644V129.638L124.058 127.658L124.058 127.651L124.231 125.736L124.231 125.732L124.232 125.729L124.519 123.877L124.52 123.874L124.521 123.87L124.924 122.083L124.925 122.079L124.926 122.076L125.444 120.352L125.445 120.349L125.447 120.345L126.08 118.686L126.081 118.682L126.083 118.679L126.832 117.083L126.833 117.08L126.835 117.076L127.699 115.545L127.701 115.542L127.703 115.539L128.682 114.072L128.684 114.068L128.686 114.065L129.781 112.662L129.783 112.66L129.785 112.657L130.995 111.318L130.997 111.315L131 111.313L132.324 110.038L132.327 110.036L132.329 110.033L133.763 108.83L133.765 108.828L133.768 108.826L135.305 107.702L135.307 107.7L135.31 107.698L136.95 106.652L136.952 106.651L136.955 106.649L150.559 99.11L150.562 99.1085L150.564 99.1072L152.403 98.2226L152.408 98.2204L154.35 97.4144L154.352 97.4135L154.354 97.4126L156.398 96.6852L156.401 96.6845L156.403 96.6837L158.55 96.035L158.554 96.0339L160.803 95.4638L160.805 95.4632L160.807 95.4628L163.159 94.9713L163.161 94.971L163.163 94.9706L165.617 94.5577L165.619 94.5575L165.621 94.5572L168.178 94.2231L168.179 94.2229L183.984 92.3273L184.012 92.1266L184.049 91.8502L184.081 91.591L184.108 91.3493L184.129 91.125L184.146 90.9181L184.159 90.7289L184.166 90.5573L184.168 90.4035L184.146 89.6555L184.081 88.9342L183.971 88.239L183.818 87.5705L183.622 86.9311L183.383 86.3186L183.099 85.7313L182.772 85.1732L182.402 84.6411L181.989 84.1365L181.53 83.6568L181.029 83.2044L180.486 82.7829L179.909 82.3995L179.292 82.0507L178.641 81.7395L177.954 81.4653L177.23 81.2273L176.465 81.0245L175.665 80.8591L174.826 80.7301L173.954 80.6384L173.043 80.5832L172.095 80.5648L171.027 80.588L170.248 80.6408L169.904 81.1956L169.504 81.9435L169.144 82.7262L168.825 83.5438L168.547 84.3954L168.311 85.2808L168.115 86.2008L167.932 87.4889L167.888 87.5134L156.087 94.045L156.064 94.0577H132.101L132.294 92.6986L132.295 92.6951L132.295 92.6918L132.85 90.078L132.85 90.0756L133.512 87.5679L133.513 87.5653L133.513 87.5629L134.283 85.1588L134.284 85.156L134.285 85.1534L135.162 82.8528L135.163 82.85L135.164 82.8475L136.149 80.6504L136.151 80.6476L136.152 80.6449L137.245 78.5515L137.246 78.5488L137.248 78.546L138.449 76.556L138.451 76.5532L138.453 76.5507L139.761 74.6644L139.763 74.6616L139.765 74.6591L141.182 72.8763L141.184 72.8736L141.186 72.8712L142.71 71.192L142.713 71.1894L142.715 71.1872L144.347 69.6116L144.349 69.6092L144.352 69.6071L146.092 68.1351L146.094 68.1332L147.937 66.742L147.939 66.7399L147.942 66.7381L149.876 65.4696L149.878 65.4677L151.908 64.3183L151.91 64.3173L163.725 57.8886L163.727 57.8875L163.729 57.8864L165.842 56.8629L165.848 56.8604L168.053 55.9575L168.055 55.9562L168.058 55.9553L170.356 55.1727L170.362 55.1709L172.753 54.5086L172.756 54.5079L172.758 54.5073L175.242 53.9656L175.245 53.9649L175.247 53.9645L177.824 53.5432L177.826 53.5428L177.829 53.5424L180.498 53.2414L180.503 53.241L183.264 53.0604H183.267L183.269 53.0602L186.124 53H186.128L188.634 53.0541ZM160.084 117.218L159.824 117.951L159.582 119.181L159.501 120.508L159.519 121.05L159.573 121.573L159.663 122.078L159.789 122.562L159.951 123.025L160.149 123.47L160.384 123.896L160.653 124.301L160.959 124.687L161.301 125.054L161.68 125.403L162.095 125.732L162.543 126.04L163.018 126.321L163.518 126.574L164.047 126.802L164.604 127.003L165.183 127.177L165.793 127.324L166.43 127.445L167.092 127.539L167.782 127.606L168.503 127.647L169.246 127.66L170.174 127.643L171.098 127.592L172.017 127.506L172.925 127.386L173.825 127.231L174.716 127.044L175.127 126.94L175.188 126.884L175.861 126.205L176.507 125.508L177.118 124.8L179.375 114.494L160.084 117.218Z" fill="black"/>
<path fill-rule="evenodd" clip-rule="evenodd" d="M188.634 53.0541H188.636L188.638 53.0543L191.056 53.2165L191.058 53.2167L191.061 53.2169L193.391 53.4873L193.393 53.4874L193.396 53.488L195.638 53.8663L195.64 53.8669L195.643 53.8675L197.797 54.354L197.8 54.3545L197.803 54.3554L199.869 54.9501L199.872 54.9509L199.875 54.952L201.853 55.6548L201.856 55.6557L201.859 55.657L203.749 56.468L203.752 56.4693L203.755 56.4707L205.557 57.3897L205.56 57.3914L205.563 57.3932L207.278 58.4203L207.281 58.422L207.283 58.424L208.91 59.5592L208.913 59.5613L208.916 59.5635L210.454 60.8069L210.456 60.8088L210.459 60.8108L211.891 62.1144L211.894 62.1168L211.896 62.1195L213.204 63.4942L213.207 63.4969L213.209 63.4999L214.395 64.9491L214.397 64.9522L215.455 66.4695L215.458 66.4729L215.46 66.4762L216.394 68.0647L216.396 68.0682L216.398 68.0717L217.207 69.7317L217.209 69.7352L217.21 69.7389L217.895 71.47L217.897 71.4735L217.898 71.4772L218.458 73.2796L218.46 73.2831L218.46 73.2868L218.896 75.1603L218.897 75.1638L218.898 75.1673L219.209 77.1123L219.21 77.1156L219.21 77.1191L219.397 79.1351L219.397 79.1384V79.1416L219.459 81.229V81.2331L219.453 81.8032V81.8052L219.435 82.3951L219.435 82.3969L219.404 83.0064L219.404 83.0082L219.361 83.6372V83.6389L219.306 84.2876L219.306 84.2893L219.239 84.9576L219.239 84.9591L219.16 85.6471V85.6486L219.068 86.3562L218.964 87.0849V87.0862L218.848 87.8331L218.847 87.8342L218.719 88.6009L218.719 88.602L218.579 89.3882L218.578 89.3919L212.6 117.168L212.599 117.17L212.572 117.288L212.572 117.288L212.546 117.417L212.524 117.548L212.503 117.69L212.504 117.69L212.485 117.841L212.47 117.997L212.456 118.161L212.456 118.161L212.445 118.331L212.437 118.51L212.437 118.51L212.431 118.696L212.431 118.697L212.427 118.892L212.426 119.09L212.461 119.759L212.565 120.366L212.738 120.912L212.978 121.399L213.287 121.827L213.665 122.199L214.112 122.514L214.63 122.773L215.22 122.975L215.882 123.12L216.616 123.208L217.424 123.237H223L218.578 144.06L218.569 144.104L218.53 144.127L206.882 150.869H197.5L197.497 150.869H197.494L195.544 150.816H195.542L195.539 150.816L193.674 150.657L193.671 150.657L193.668 150.657L193.665 150.656L191.886 150.391L191.882 150.391L191.879 150.39L190.188 150.019L190.185 150.018L190.181 150.017L188.578 149.54L188.574 149.539L188.571 149.537L187.06 148.956L187.056 148.954L187.052 148.953L187.049 148.951L185.622 148.262L185.618 148.26L185.615 148.258L184.277 147.462L184.273 147.46L184.269 147.458L183.019 146.556L183.016 146.554L183.012 146.551L181.851 145.543L181.844 145.537L180.771 144.424L180.768 144.421L180.765 144.417L180.381 143.942L174.174 147.494L174.173 147.495L172.104 148.647L172.101 148.649L172.098 148.65L172.095 148.652L172.093 148.653L169.949 149.669L169.946 149.67L167.721 150.552L167.717 150.553L167.714 150.554L167.711 150.555L167.711 150.555L167.708 150.556L165.411 151.3L165.408 151.301L165.405 151.301L163.026 151.911L163.026 151.911L163.023 151.912L163.02 151.913L163.017 151.913L160.556 152.388L160.554 152.388L160.551 152.389L158.015 152.727L158.014 152.727L158.012 152.728L158.009 152.728L158.006 152.728L155.389 152.932L155.386 152.932H155.384L152.693 153L152.691 153L152.69 153L152.686 153L152.681 153H152.679L150.544 152.956H150.542L150.54 152.955L148.478 152.822H148.476L148.471 152.822L148.469 152.822L148.467 152.821L148.462 152.821L146.477 152.6L146.474 152.599L146.472 152.599L144.553 152.288L144.548 152.287L144.545 152.287L144.544 152.286L142.702 151.888L142.7 151.887L142.697 151.887L140.925 151.399L140.922 151.398L140.919 151.397L140.917 151.396L140.914 151.395L139.221 150.82L139.218 150.819L139.215 150.818L137.591 150.152L137.585 150.149L136.033 149.395L136.03 149.393L136.028 149.392L134.55 148.548L134.544 148.545L133.14 147.613L133.137 147.611L133.134 147.608L131.804 146.588L131.801 146.586L131.798 146.583L130.558 145.49L130.555 145.487L130.553 145.485L129.421 144.334L129.418 144.332L129.416 144.329L128.391 143.122L128.389 143.119L128.387 143.116L127.47 141.852L127.468 141.849L127.466 141.846L126.657 140.525L126.655 140.522L126.653 140.518L125.952 139.141L125.95 139.137L125.949 139.134L125.356 137.7L125.354 137.696L125.353 137.692L124.868 136.202L124.867 136.198L124.866 136.194L124.488 134.647L124.487 134.644L124.487 134.64L124.217 133.036L124.216 133.032L124.216 133.029L124.054 131.368L124.054 131.365L124.054 131.361L124 129.644V129.638L124.058 127.658L124.058 127.651L124.231 125.736L124.231 125.732L124.232 125.729L124.519 123.877L124.52 123.874L124.521 123.87L124.924 122.083L124.925 122.079L124.926 122.076L125.444 120.352L125.445 120.349L125.447 120.345L126.08 118.686L126.081 118.682L126.083 118.679L126.832 117.083L126.833 117.08L126.835 117.076L127.699 115.545L127.701 115.542L127.703 115.539L128.682 114.072L128.684 114.068L128.686 114.065L129.781 112.662L129.783 112.66L129.785 112.657L130.995 111.318L130.997 111.315L131 111.313L132.324 110.038L132.327 110.036L132.329 110.033L133.763 108.83L133.765 108.828L133.768 108.826L135.305 107.702L135.307 107.7L135.31 107.698L136.95 106.652L136.952 106.651L136.955 106.649L150.559 99.11L150.562 99.1085L150.564 99.1072L152.403 98.2226L152.408 98.2204L154.35 97.4144L154.352 97.4135L154.354 97.4126L156.398 96.6852L156.401 96.6845L156.403 96.6837L158.55 96.035L158.554 96.0339L160.803 95.4638L160.805 95.4632L160.807 95.4628L163.159 94.9713L163.161 94.971L163.163 94.9706L165.617 94.5577L165.619 94.5575L165.621 94.5572L168.178 94.2231L168.179 94.2229L183.984 92.3273L184.012 92.1266L184.049 91.8502L184.081 91.591L184.108 91.3493L184.129 91.125L184.146 90.9181L184.159 90.7289L184.166 90.5573L184.168 90.4035L184.146 89.6555L184.081 88.9342L183.971 88.239L183.818 87.5705L183.622 86.9311L183.383 86.3186L183.099 85.7313L182.772 85.1732L182.402 84.6411L181.989 84.1365L181.53 83.6568L181.029 83.2044L180.486 82.7829L179.909 82.3995L179.292 82.0507L178.641 81.7395L177.954 81.4653L177.23 81.2273L176.465 81.0245L175.665 80.8591L174.826 80.7301L173.954 80.6384L173.043 80.5832L172.095 80.5648L171.027 80.588L170.248 80.6408L169.904 81.1956L169.504 81.9435L169.144 82.7262L168.825 83.5438L168.547 84.3954L168.311 85.2808L168.115 86.2008L167.932 87.4889L167.888 87.5134L156.087 94.045L156.064 94.0577H132.101L132.294 92.6986L132.295 92.6951L132.295 92.6918L132.85 90.078L132.85 90.0756L133.512 87.5679L133.513 87.5653L133.513 87.5629L134.283 85.1588L134.284 85.156L134.285 85.1534L135.162 82.8528L135.163 82.85L135.164 82.8475L136.149 80.6504L136.151 80.6476L136.152 80.6449L137.245 78.5515L137.246 78.5488L137.248 78.546L138.449 76.556L138.451 76.5532L138.453 76.5507L139.761 74.6644L139.763 74.6616L139.765 74.6591L141.182 72.8763L141.184 72.8736L141.186 72.8712L142.71 71.192L142.713 71.1894L142.715 71.1872L144.347 69.6116L144.349 69.6092L144.352 69.6071L146.092 68.1351L146.094 68.1332L147.937 66.742L147.939 66.7399L147.942 66.7381L149.876 65.4696L149.878 65.4677L151.908 64.3183L151.91 64.3173L163.725 57.8886L163.727 57.8875L163.729 57.8864L165.842 56.8629L165.848 56.8604L168.053 55.9575L168.055 55.9562L168.058 55.9553L170.356 55.1727L170.362 55.1709L172.753 54.5086L172.756 54.5079L172.758 54.5073L175.242 53.9656L175.245 53.9649L175.247 53.9645L177.824 53.5432L177.826 53.5428L177.829 53.5424L180.498 53.2414L180.503 53.241L183.264 53.0604H183.267L183.269 53.0602L186.124 53H186.128L188.634 53.0541ZM160.084 117.218L159.824 117.951L159.582 119.181L159.501 120.508L159.519 121.05L159.573 121.573L159.663 122.078L159.789 122.562L159.951 123.025L160.149 123.47L160.384 123.896L160.653 124.301L160.959 124.687L161.301 125.054L161.68 125.403L162.095 125.732L162.543 126.04L163.018 126.321L163.518 126.574L164.047 126.802L164.604 127.003L165.183 127.177L165.793 127.324L166.43 127.445L167.092 127.539L167.782 127.606L168.503 127.647L169.246 127.66L170.174 127.643L171.098 127.592L172.017 127.506L172.925 127.386L173.825 127.231L174.716 127.044L175.127 126.94L175.188 126.884L175.861 126.205L176.507 125.508L177.118 124.8L179.375 114.494L160.084 117.218Z" stroke="white" stroke-width="3.32982" mask="url(#path-2-outside-1_248_48)"/>
<path d="M174.192 58.168C184.544 58.168 192.856 60.7969 199.034 66.1445L199.605 66.6406C205.415 71.8251 208.311 78.6758 208.311 87.1123C208.311 89.4193 208.009 92.1841 207.416 95.3965L207.413 95.4082L207.411 95.4209L201.423 123.18L201.417 123.205C201.323 123.581 201.266 124.151 201.266 124.948C201.266 126.19 201.632 126.984 202.242 127.491C202.882 128.023 203.933 128.359 205.54 128.359H212.028L211.814 129.365L207.411 150.052L207.271 150.711H197.263C189.466 150.711 183.507 148.338 179.541 143.484C172.315 149.728 163.292 152.832 152.53 152.832C143.708 152.832 136.575 150.677 131.221 146.278C125.854 141.87 123.168 136.031 123.168 128.839C123.168 120.609 126.012 113.893 131.722 108.771C137.235 103.825 145.075 100.754 155.153 99.4854L156.136 99.3682L182.128 96.2568L182.881 92.6318C183.116 91.2181 183.223 90.2779 183.223 89.7646C183.223 86.9153 182.252 84.7442 180.351 83.1533C178.438 81.5531 175.661 80.6954 171.903 80.6953C167.707 80.6953 164.32 81.7743 161.678 83.874L161.674 83.877C159.154 85.8568 157.546 88.6116 156.873 92.2041L156.7 93.418L156.599 94.1328H131.142L131.277 93.1826L131.453 91.9453L131.456 91.9268L131.459 91.9092C133.484 81.1447 138.148 72.8198 145.491 67.0156L146.187 66.4688C153.438 60.9118 162.797 58.168 174.192 58.168ZM159.339 117.286L159.334 117.287C155.479 117.807 152.705 118.862 150.908 120.37C149.146 121.848 148.256 123.817 148.256 126.363C148.256 128.346 149.017 129.862 150.559 130.997C152.13 132.154 154.342 132.779 157.285 132.779C160.915 132.779 164.373 131.983 167.665 130.388C171.023 128.701 173.878 126.464 176.241 123.681L178.229 114.624L159.339 117.286Z" fill="black" stroke="white" stroke-width="1.66491"/>
</svg>
