<svg width="194" height="194" viewBox="0 0 194 194" fill="none" xmlns="http://www.w3.org/2000/svg">
<rect width="193.849" height="193.849" rx="50" fill="black"/>
<path d="M135.011 117.89L131.114 136.129H122.852C115.785 136.129 110.588 133.895 107.262 129.426C100.923 135.142 92.9202 138 83.2548 138C75.564 138 69.4322 136.129 64.8593 132.388C60.2864 128.646 58 123.71 58 117.578C58 110.511 60.4423 104.795 65.327 100.43C70.2117 96.0646 77.2788 93.3625 86.5285 92.3232L110.068 89.5171L110.848 85.7757C111.056 84.5285 111.16 83.6451 111.16 83.1255C111.16 80.4233 110.224 78.2928 108.354 76.7338C106.483 75.1749 103.833 74.3954 100.403 74.3954C96.5577 74.3954 93.3878 75.3828 90.8935 77.3574C88.5032 79.2281 86.9962 81.8264 86.3726 85.1521L86.2167 86.2433H65.1711L65.327 85.1521C67.0938 75.7985 71.147 68.6274 77.4867 63.6388C83.8264 58.5463 92.1407 56 102.43 56C111.471 56 118.643 58.2864 123.943 62.8593C129.243 67.3283 131.894 73.3042 131.894 80.7871C131.894 82.7617 131.634 85.1521 131.114 87.9582L125.814 112.433C125.71 112.849 125.658 113.421 125.658 114.148C125.658 116.643 127.165 117.89 130.179 117.89H135.011ZM87.4639 121.787C90.7896 121.787 93.9594 121.06 96.9734 119.605C100.091 118.046 102.741 115.967 104.924 113.369L106.951 104.171L89.1787 106.665C82.2155 107.601 78.7338 110.511 78.7338 115.395C78.7338 117.37 79.5133 118.929 81.0722 120.072C82.6312 121.215 84.7617 121.787 87.4639 121.787Z" fill="white"/>
</svg>
